0
SECTION
2
HEADER
9
$INSUNITS
70
1
9
$ACADVER
1
AC1014
9
$HANDSEED
5
FFFF
0
ENDSEC
0
SECTION
2
TABLES
0
TABLE
2
VPORT
5
8
100
AcDbSymbolTable
0
ENDTAB
0
TABLE
2
LTYPE
5
5
100
AcDbSymbolTable
0
LTYPE
5
14
100
AcDbSymbolTableRecord
100
AcDbLinetypeTableRecord
2
BYBLOCK
70
0
0
LTYPE
5
15
100
AcDbSymbolTableRecord
100
AcDbLinetypeTableRecord
2
BYLAYER
70
0
0
ENDTAB
0
TABLE
2
LAYER
5
2
100
AcDbSymbolTable
70
2
0
LAYER
5
50
100
AcDbSymbolTableRecord
100
AcDbLayerTableRecord
2
0
70
0
6
CONTINUOUS
0
ENDTAB
0
TABLE
2
STYLE
5
3
100
AcDbSymbolTable
70
1
0
STYLE
5
11
100
AcDbSymbolTableRecord
100
AcDbTextStyleTableRecord
2
STANDARD
70
0
0
ENDTAB
0
TABLE
2
VIEW
5
6
100
AcDbSymbolTable
70
0
0
ENDTAB
0
TABLE
2
UCS
5
7
100
AcDbSymbolTable
70
0
0
ENDTAB
0
TABLE
2
APPID
5
9
100
AcDbSymbolTable
70
2
0
APPID
5
12
100
AcDbSymbolTableRecord
100
AcDbRegAppTableRecord
2
ACAD
70
0
0
ENDTAB
0
TABLE
2
DIMSTYLE
5
A
100
AcDbSymbolTable
70
1
0
ENDTAB
0
TABLE
2
BLOCK_RECORD
5
1
100
AcDbSymbolTable
70
1
0
BLOCK_RECORD
5
1F
100
AcDbSymbolTableRecord
100
AcDbBlockTableRecord
2
*MODEL_SPACE
0
BLOCK_RECORD
5
1B
100
AcDbSymbolTableRecord
100
AcDbBlockTableRecord
2
*PAPER_SPACE
0
ENDTAB
0
ENDSEC
0
SECTION
2
BLOCKS
0
BLOCK
5
20
100
AcDbEntity
100
AcDbBlockBegin
2
*MODEL_SPACE
0
ENDBLK
5
21
100
AcDbEntity
100
AcDbBlockEnd
0
BLOCK
5
1C
100
AcDbEntity
100
AcDbBlockBegin
2
*PAPER_SPACE
0
ENDBLK
5
1D
100
AcDbEntity
100
AcDbBlockEnd
0
ENDSEC
0
SECTION
2
ENTITIES
0
LWPOLYLINE
5
100
100
AcDbEntity
8
0
100
AcDbPolyline
90
4
70
1
43
0.0
10
-0.93602362204723455
20
0.5125766024299887
10
-0.93602362204723455
20
-0.5125766024299887
10
0.93602362204724188
20
-0.51257660242998837
10
0.93602362204724188
20
0.5125766024299887
0
CIRCLE
5
101
100
AcDbEntity
8
0
100
AcDbCircle
10
3.7153132713833972e-15
20
-0.88659235046148466
30
0
40
0.068897637795275607
210
0
220
0
230
1
0
LINE
5
102
100
AcDbEntity
8
0
100
AcDbLine
10
1.0494599041912918
20
0.3615438128705602
30
0
11
1.0738188976377934
21
0.33718481942404466
31
0
0
LINE
5
103
100
AcDbEntity
8
0
100
AcDbLine
10
1.0738188976377934
20
0.33718481942404466
30
0
11
1.0738188976377934
21
-0.33718481942404477
31
0
0
LINE
5
104
100
AcDbEntity
8
0
100
AcDbLine
10
1.0738188976377934
20
-0.33718481942404477
30
0
11
1.0494599041912918
21
-0.36154381287056009
31
0
0
LINE
5
105
100
AcDbEntity
8
0
100
AcDbLine
10
0.78499083248773638
20
-0.62601288457426441
30
0
11
0.76063183904147469
21
-0.65037187802053975
31
0
0
LINE
5
106
100
AcDbEntity
8
0
100
AcDbLine
10
0.76063183904147469
20
-0.65037187802053975
30
0
11
0.18700787401575172
21
-0.65037187802053975
31
0
0
LINE
5
107
100
AcDbEntity
8
0
100
AcDbLine
10
0.18700787401575172
20
-0.65037187802053975
30
0
11
0.18700787401575178
21
-0.88659235046148466
31
0
0
ARC
5
108
100
AcDbEntity
8
0
100
AcDbCircle
10
3.7153132713833972e-15
20
-0.88659235046148466
30
0
40
0.18700787401574803
210
0
220
0
230
1
100
AcDbArc
50
-180
51
0
0
LINE
5
109
100
AcDbEntity
8
0
100
AcDbLine
10
-0.18700787401574431
20
-0.88659235046148466
30
0
11
-0.18700787401574434
21
-0.65037187802053975
31
0
0
LINE
5
110
100
AcDbEntity
8
0
100
AcDbLine
10
-0.18700787401574434
20
-0.65037187802053975
30
0
11
-0.76063183904146725
21
-0.65037187802053975
31
0
0
LINE
5
111
100
AcDbEntity
8
0
100
AcDbLine
10
-0.76063183904146725
20
-0.65037187802053975
30
0
11
-0.78499083248772905
21
-0.62601288457426441
31
0
0
LINE
5
112
100
AcDbEntity
8
0
100
AcDbLine
10
-1.0494599041912849
20
-0.36154381287055987
30
0
11
-1.073818897637786
21
-0.33718481942404477
31
0
0
LINE
5
113
100
AcDbEntity
8
0
100
AcDbLine
10
-1.073818897637786
20
-0.33718481942404477
30
0
11
-1.073818897637786
21
0.33718481942404466
31
0
0
LINE
5
114
100
AcDbEntity
8
0
100
AcDbLine
10
-1.073818897637786
20
0.33718481942404466
30
0
11
-1.0494599041912849
21
0.36154381287056003
31
0
0
LINE
5
115
100
AcDbEntity
8
0
100
AcDbLine
10
-0.78499083248772905
20
0.62601288457426441
30
0
11
-0.76063183904146725
21
0.65037187802053975
31
0
0
LINE
5
116
100
AcDbEntity
8
0
100
AcDbLine
10
-0.76063183904146725
20
0.65037187802053975
30
0
11
-0.18700787401574456
21
0.65037187802053953
31
0
0
LINE
5
117
100
AcDbEntity
8
0
100
AcDbLine
10
0.18700787401575178
20
0.65037187802053953
30
0
11
0.76063183904147458
21
0.65037187802053975
31
0
0
LINE
5
118
100
AcDbEntity
8
0
100
AcDbLine
10
0.76063183904147458
20
0.65037187802053975
30
0
11
0.78499083248773605
21
0.62601288457426474
31
0
0
LINE
5
119
100
AcDbEntity
8
0
100
AcDbLine
10
0.93602362204724188
20
0.5125766024299887
30
0
11
1.0334595958328177
21
0.61001257621550953
31
0
0
LINE
5
120
100
AcDbEntity
8
0
100
AcDbLine
10
1.0494599041912918
20
0.3615438128705602
30
0
11
1.0334595958328177
21
0.61001257621550953
31
0
0
LINE
5
121
100
AcDbEntity
8
0
100
AcDbLine
10
1.0334595958328177
20
0.61001257621550953
30
0
11
0.78499083248773605
21
0.62601288457426474
31
0
0
LINE
5
122
100
AcDbEntity
8
0
100
AcDbLine
10
1.0738188976377934
20
0.33718481942404466
30
0
11
0.93602362204724188
21
0.33718481942404466
31
0
0
LINE
5
123
100
AcDbEntity
8
0
100
AcDbLine
10
-0.93602362204723455
20
0.5125766024299887
30
0
11
-1.0334595958328099
21
0.61001257621550953
31
0
0
LINE
5
124
100
AcDbEntity
8
0
100
AcDbLine
10
-1.0334595958328099
20
0.61001257621550953
30
0
11
-1.0494599041912849
21
0.36154381287056003
31
0
0
LINE
5
125
100
AcDbEntity
8
0
100
AcDbLine
10
-1.0334595958328099
20
0.61001257621550953
30
0
11
-0.78499083248772905
21
0.62601288457426441
31
0
0
LINE
5
126
100
AcDbEntity
8
0
100
AcDbLine
10
0.93602362204724188
20
-0.51257660242998837
30
0
11
1.0334595958328174
21
-0.61001257621550908
31
0
0
LINE
5
127
100
AcDbEntity
8
0
100
AcDbLine
10
1.0334595958328174
20
-0.61001257621550908
30
0
11
0.78499083248773638
21
-0.62601288457426441
31
0
0
LINE
5
128
100
AcDbEntity
8
0
100
AcDbLine
10
1.0334595958328174
20
-0.61001257621550908
30
0
11
1.0494599041912918
21
-0.36154381287056009
31
0
0
LINE
5
129
100
AcDbEntity
8
0
100
AcDbLine
10
-0.93602362204723455
20
-0.5125766024299887
30
0
11
-1.0334595958328099
21
-0.61001257621550953
31
0
0
LINE
5
130
100
AcDbEntity
8
0
100
AcDbLine
10
-1.0334595958328099
20
-0.61001257621550953
30
0
11
-1.0494599041912849
21
-0.36154381287055987
31
0
0
LINE
5
131
100
AcDbEntity
8
0
100
AcDbLine
10
-1.0334595958328099
20
-0.61001257621550953
30
0
11
-0.78499083248772905
21
-0.62601288457426441
31
0
0
LINE
5
132
100
AcDbEntity
8
0
100
AcDbLine
10
-0.18700787401574434
20
-0.65037187802053975
30
0
11
0.18700787401575172
21
-0.65037187802053975
31
0
0
LINE
5
133
100
AcDbEntity
8
0
100
AcDbLine
10
-0.18700787401574456
20
0.65037187802053953
30
0
11
0.18700787401575178
21
0.65037187802053953
31
0
0
ENDSEC
0
SECTION
2
OBJECTS
0
DICTIONARY
5
C
100
AcDbDictionary
3
ACAD_GROUP
350
D
3
ACAD_MLINESTYLE
350
17
0
DICTIONARY
5
D
100
AcDbDictionary
0
DICTIONARY
5
1A
330
C
100
AcDbDictionary
0
DICTIONARY
5
17
100
AcDbDictionary
0
ENDSEC
0
EOF
